<svg xmlns="http://www.w3.org/2000/svg" xmlns:xlink="http://www.w3.org/1999/xlink" width="1920" height="550" viewBox="0 0 1920 550">
  <defs>
    <clipPath id="clip-path">
      <rect id="Rectangle_46" data-name="Rectangle 46" width="1920" height="550" transform="translate(-2825 3258)" fill="#1a2855"/>
    </clipPath>
  </defs>
  <g id="aboutussvg" transform="translate(2825 -3258)">
    <rect id="Rectangle_26" data-name="Rectangle 26" width="1920" height="550" transform="translate(-2825 3258)" fill="#1a2855"/>
    <g id="Mask_Group_35" data-name="Mask Group 35" clip-path="url(#clip-path)">
      <path id="blob_1_" data-name="blob (1)" d="M312.807,89.7c32.009,30.315,63.083,54.928,76.644,87.522,13.244,32.6,8.657,73.172-6.4,107.447-15.375,34.275-40.9,62.247-71.227,98.79-30.007,36.542-64.812,81.657-99.465,81.455-34.336.115-68.521-45.087-112.605-76.945C55.668,356.428,1.683,337.911-1.078,307.816c-2.762-29.778,45.385-71.768,61.46-125.059s-.241-117.882,19.9-152.173S157.031-7.382,202.124,8.312C247.215,24.323,280.479,59.7,312.807,89.7Z" transform="matrix(-0.53, 0.848, -0.848, -0.53, -2475.317, 3314.793)" fill="#fdc500"/>
      <path id="blob_1_2" data-name="blob (1)" d="M226.482,65.994c23.217,21.94,45.736,39.775,55.652,63.282,9.686,23.507,6.538,52.686-4.189,77.289-10.957,24.6-29.264,44.628-51,70.8-21.506,26.175-46.438,58.5-71.443,58.217-24.775-.054-49.62-32.715-81.557-55.814C42.01,256.9,2.984,243.36.872,221.693c-2.112-21.438,32.461-51.461,43.847-89.743S44.074,47.127,58.472,22.532,113.7-4.481,146.295,6.991C178.894,18.69,203.037,44.281,226.482,65.994Z" transform="translate(-870.717 3498.972) rotate(72)" fill="#fdc500"/>
    </g>
  </g>
</svg>
