<svg xmlns="http://www.w3.org/2000/svg" xmlns:xlink="http://www.w3.org/1999/xlink" width="1920" height="1182" viewBox="0 0 1920 1182">
  <defs>
    <clipPath id="clip-path">
      <rect id="Rectangle_30" data-name="Rectangle 30" width="1920" height="1182" fill="#fff"/>
    </clipPath>
  </defs>
  <g id="background" clip-path="url(#clip-path)">
    <g id="Group_72" data-name="Group 72">
      <rect id="Rectangle_31" data-name="Rectangle 31" width="1920" height="891" fill="#bcc0ca"/>
      <path id="blob_2_" data-name="blob (2)" d="M706.349-47.892c53.109,16.9,64.356,65.415,79.352,108.921,14.371,43.193,33.74,81.065,13.121,112.677-19.994,31.925-79.352,57.277-141.834,72.614-63.107,15.337-129.337,20.97-206.815,28.169C372.7,282,283.972,291.7,197.747,280.123,110.9,268.542,25.922,235.991-29.062,189.355-83.422,142.72-107.789,82.625-68.426,35.99-28.438-10.646,75.282-43.2,174-52.587c98.721-9.077,193.069,4.695,288.041,4.069C557.018-49.457,652.615-64.48,706.349-47.892Z" transform="translate(1189.801 813.473)" fill="rgba(137,144,163,0.57)"/>
      <path id="blob_1_" data-name="blob (1)" d="M565.1,79.766c64.824,51.422,127.723,93.2,155.321,148.373,26.957,55.171,17.971,123.734-12.195,181.583-30.808,57.85-82.153,104.986-143.127,166.585-60.331,61.6-130.29,137.66-200.249,137.125-69.317,0-138.634-76.6-227.847-130.7C47.8,529.171-61.315,497.568-67.091,446.682c-5.776-50.351,91.139-121.056,123.23-211.044S54.855,36.379,95.29-21.471,249.97-85.212,341.108-58.43C432.247-31.112,499.639,28.88,565.1,79.766Z" transform="translate(212.957 1209.375) rotate(-120)" fill="#556084"/>
      <path id="blob_1_2" data-name="blob (1)" d="M772.98,87.321C859.111,141.274,942.683,185.11,979.353,243c35.817,57.886,23.878,129.823-16.2,190.519-40.934,60.7-109.156,110.153-190.17,174.783-80.161,64.63-173.115,144.435-266.068,143.873-92.1,0-184.2-80.367-302.737-137.129C85.638,558.843-59.335,525.685-67.01,472.294c-7.675-52.828,121.095-127.013,163.734-221.43S95.019,41.8,148.744-18.9s205.52-66.878,326.615-38.778C596.454-29.014,686,33.931,772.98,87.321Z" transform="matrix(0.766, -0.643, 0.643, 0.766, 181.909, 431.382)" fill="#b1b4c0"/>
      <path id="blob_3_" data-name="blob (3)" d="M660.835,95.491c63.436,101.138,49.671,256.136-20.946,368.644C569.272,577.242,442.4,647.859,328.1,640.079,214.392,632.3,113.853,546.123,36.653,429.425S-93.809,166.108-43.539,72.75C6.73-21.207,160.532-60.7,308.349-57.114,456.165-52.925,596.8-5.647,660.835,95.491Z" transform="matrix(-0.998, -0.07, 0.07, -0.998, 1258.019, 1037.214)" fill="#8990a3"/>
      <path id="blob_2_2" data-name="blob (2)" d="M841.567-33.82C903.719,13.572,916.881,149.6,934.43,271.6c16.818,121.113,39.485,227.306,15.355,315.947-23.4,89.518-92.863,160.606-165.983,203.61-73.852,43-151.359,58.8-242.029,78.987-90.669,21.063-194.5,48.27-295.407,15.8C144.729,853.464,45.285,762.19-19.061,631.423c-63.615-130.767-92.132-299.272-46.066-430.039C-18.33,70.618,103.05-20.656,218.58-46.984,334.111-72.436,444.523-33.82,555.666-35.575,666.809-38.208,778.683-80.334,841.567-33.82Z" transform="translate(1218.58 128.413)" fill="#63709b"/>
    </g>
  </g>
</svg>
