<svg xmlns="http://www.w3.org/2000/svg" xmlns:xlink="http://www.w3.org/1999/xlink" width="414" height="551.616" viewBox="0 0 414 551.616">
  <defs>
    <clipPath id="clip-path">
      <path id="Subtraction_2" data-name="Subtraction 2" d="M0,551.616H0V0C21.524,21.544,51.991,39.58,88.108,52.157A349.468,349.468,0,0,0,146.377,66.79,401.67,401.67,0,0,0,211.1,71.971a403.051,403.051,0,0,0,60.969-4.585,355.507,355.507,0,0,0,55.392-13A287.186,287.186,0,0,0,375.4,34.1,210.859,210.859,0,0,0,414,7.668V551.349c-7.822-9.643-18.707-18.674-32.352-26.842-13.517-8.09-29.488-15.183-47.469-21.08-37.328-12.242-81.268-18.713-127.071-18.713-45.911,0-89.936,6.5-127.317,18.793-18.005,5.922-33.986,13.043-47.5,21.165C18.648,532.873,7.784,541.938,0,551.615Z" fill="#1a2855"/>
    </clipPath>
  </defs>
  <g id="familysvg-mini" transform="translate(-76 -56.133)">
    <path id="Subtraction_1" data-name="Subtraction 1" d="M0,551.616H0V0C21.524,21.544,51.991,39.58,88.108,52.157A349.468,349.468,0,0,0,146.377,66.79,401.67,401.67,0,0,0,211.1,71.971a403.051,403.051,0,0,0,60.969-4.585,355.507,355.507,0,0,0,55.392-13A287.186,287.186,0,0,0,375.4,34.1,210.859,210.859,0,0,0,414,7.668V551.349c-7.822-9.643-18.707-18.674-32.352-26.842-13.517-8.09-29.488-15.183-47.469-21.08-37.328-12.242-81.268-18.713-127.071-18.713-45.911,0-89.936,6.5-127.317,18.793-18.005,5.922-33.986,13.043-47.5,21.165C18.648,532.873,7.784,541.938,0,551.615Z" transform="translate(76 56.133)" fill="#1a2855"/>
    <g id="Mask_Group_1" data-name="Mask Group 1" transform="translate(76 56.133)" clip-path="url(#clip-path)">
      <path id="blob_3_" data-name="blob (3)" d="M312.524,16.993c32.918,49.19,25.775,124.575-10.869,179.3-36.644,55.011-102.48,89.357-161.795,85.573-59-3.784-111.176-45.7-151.236-102.454S-79.075,51.338-52.989,5.932c26.086-45.7,105.9-64.907,182.6-63.161C206.317-55.191,279.3-32.2,312.524,16.993Z" transform="translate(-220.506 -75.327)" fill="#fdc500"/>
      <path id="blob_3_2" data-name="blob (3)" d="M136.321-13.183c17.48,29.22,13.687,74-5.772,106.507C111.09,126,76.131,146.4,44.635,144.156,13.3,141.908-14.4,117.011-35.673,83.3S-71.622,7.219-57.77-19.753C-43.918-46.9-1.538-58.31,39.193-57.273,79.924-56.062,118.676-42.4,136.321-13.183Z" transform="translate(349.286 430.406)" fill="#fdc500"/>
    </g>
  </g>
</svg>
