<svg xmlns="http://www.w3.org/2000/svg" width="1918" height="470" viewBox="0 0 1918 470">
  <g id="Group_70" data-name="Group 70" transform="translate(2908 -6629)">
    <rect id="Rectangle_47" data-name="Rectangle 47" width="1918" height="379" transform="translate(-2908 6629)" fill="#1a2855"/>
    <path id="wave_5_" data-name="wave (5)" d="M0,17.536l35.563,5.836c35.43,5.946,106.955,17.454,177.548,16.084,70.993-1.37,142.518-16.166,213.111-11.7,70.993,4.3,142.518,27.866,213.111,27.784,70.993.082,142.518-23.482,213.111-23.4,70.993-.082,142.518,23.482,213.111,29.236,70.993,5.754,142.518-5.754,213.111-13.152a1735.838,1735.838,0,0,1,213.111-8.768c70.993,1.37,142.518,7.4,213.111,1.452,70.993-5.836,142.518-23.373,177.149-32.141L1918,0V87.681H0Z" transform="translate(-2908 6920.566)" fill="#fdc500"/>
    <path id="wave_5_2" data-name="wave (5)" d="M1918,72.96l-35.563-6.071c-35.43-6.185-106.955-18.155-177.548-16.73-70.993,1.425-142.518,16.815-213.111,12.17-70.993-4.475-142.518-28.985-213.111-28.9-70.993-.086-142.518,24.425-213.111,24.339-70.993.085-142.518-24.425-213.111-30.41-70.993-5.985-142.518,5.985-213.111,13.68a1669.332,1669.332,0,0,1-213.111,9.12c-70.993-1.425-142.518-7.7-213.111-1.511C142.118,54.72,70.593,72.96,35.962,82.08L0,91.2V0H1918Z" transform="translate(-2908 7007.8)" fill="#fdc500"/>
  </g>
</svg>
