<svg xmlns="http://www.w3.org/2000/svg" xmlns:xlink="http://www.w3.org/1999/xlink" width="1734" height="845.747" viewBox="0 0 1734 845.747">
  <defs>
    <clipPath id="clip-path">
      <path id="Subtraction_2" data-name="Subtraction 2" d="M60,1206.88h0V361.133c90.149,33.032,217.757,60.685,369.031,79.968,76.687,9.775,158.8,17.324,244.054,22.435,87.915,5.271,179.124,7.944,271.093,7.944,86.453,0,172.37-2.365,255.365-7.03,80.573-4.529,158.63-11.235,232-19.933,72.1-8.546,139.652-19.01,200.775-31.1,60.916-12.048,115.312-25.684,161.677-40.528v833.582c-32.761-14.786-78.351-28.632-135.5-41.154-56.615-12.4-123.508-23.278-198.82-32.32-156.343-18.77-340.383-28.69-532.224-28.69-192.292,0-376.689,9.964-533.256,28.814-75.413,9.08-142.349,20-198.948,32.45C138.106,1178.143,92.6,1192.041,60,1206.88Z" transform="translate(16 -305)" fill="#1a2855"/>
    </clipPath>
  </defs>
  <g id="Group_3" data-name="Group 3" transform="translate(-76 -56.133)">
    <path id="Subtraction_1" data-name="Subtraction 1" d="M60,1206.88h0V361.133c90.149,33.032,217.757,60.685,369.031,79.968,76.687,9.775,158.8,17.324,244.054,22.435,87.915,5.271,179.124,7.944,271.093,7.944,86.453,0,172.37-2.365,255.365-7.03,80.573-4.529,158.63-11.235,232-19.933,72.1-8.546,139.652-19.01,200.775-31.1,60.916-12.048,115.312-25.684,161.677-40.528v833.582c-32.761-14.786-78.351-28.632-135.5-41.154-56.615-12.4-123.508-23.278-198.82-32.32-156.343-18.77-340.383-28.69-532.224-28.69-192.292,0-376.689,9.964-533.256,28.814-75.413,9.08-142.349,20-198.948,32.45C138.106,1178.143,92.6,1192.041,60,1206.88Z" transform="translate(16 -305)" fill="#1a2855"/>
    <g id="Mask_Group_1" data-name="Mask Group 1" clip-path="url(#clip-path)">
      <path id="blob_3_" data-name="blob (3)" d="M476.719,56.627c47.3,75.419,37.04,191-15.619,274.9-52.659,84.344-147.267,137-232.5,131.2-84.79-5.8-159.763-70.064-217.331-157.085s-97.286-196.356-59.8-265.974c37.486-70.064,152.176-99.517,262.4-96.839C324.1-54.047,428.969-18.792,476.719,56.627Z" transform="translate(-110.818 34.337)" fill="#fdc500"/>
      <path id="blob_3_2" data-name="blob (3)" d="M257.535,10.361c28.1,44.8,22,113.46-9.278,163.3-31.281,50.1-87.481,81.384-138.114,77.938-50.368-3.446-94.9-41.62-129.1-93.313S-76.749,41.642-54.481.287c22.268-41.62,90.4-59.116,155.875-57.525C166.872-55.383,229.169-34.44,257.535,10.361Z" transform="translate(1597.182 726.337)" fill="#fdc500"/>
    </g>
  </g>
</svg>
