<svg xmlns="http://www.w3.org/2000/svg" width="222.247" height="142.421" viewBox="0 0 222.247 142.421">
  <g id="Layer_x0020_1" transform="translate(-0.109 48.469)">
    <g id="_998730512" transform="translate(0.109 -49)">
      <path id="Path_23" data-name="Path 23" d="M40.289,389.923l.734-.122c.367.367.49.734.979.857.612-1.469-.367-1.346-.122-2.815.734-.612,6.731-9.179,8.2-11.137.734-.979,1.958-3.06,3.06-3.3,1.346,3.916-3.3,16.523-2.325,19.093,2.325-.734,7.343-12.117,11.627-13.34.367,2.2-.367,4.9-.612,6.854-.367,2.2-.734,4.406-.979,6.364-2.2,14.32-1.346,29.863,5.018,43.326,3.549,7.588,11.015,14.564,19.093,14.564,6.242,0,8.567-2.57,11.26-6.487a36.947,36.947,0,0,0,3.182-4.9c.857-1.469,2.325-4.284,2.081-5.875-1.591.734-1.713,5.263-7.955,7.833-4.284,1.713-8.567.612-11.749-.979-6.242-3.06-10.648-9.3-13.83-18.114C63.42,408.771,63.91,395.308,65.5,382.7c.122-.979,2.2-11.749.49-11.749-.245,0-.49-.49-1.958.979a19.5,19.5,0,0,0-1.591,1.591c-1.1,1.346-1.836,2.081-2.815,3.427l-4.9,6.854c-.245-1.591,4.039-16.767,1.958-18.114-1.224-.857-4.161,3.672-4.651,4.528L40.289,386.5c-1.1.122-4.161-1.713-9.914.857l-.734.49a1234.058,1234.058,0,0,1-.245.245c-2.081.122-8.567,5.018-10.158,6.364A43.313,43.313,0,0,0,7,412.32c-.734,2.081-3.427,10.77,2.448,8.934C18.748,418.317,40.411,390.9,40.289,389.923Zm-1.836-.857c-.49.122-2.693,2.937-3.182,3.549l-9.914,11.26c-1.836,1.958-12.851,13.83-16.645,11.26-2.2-4.651,5.018-12.729,7.833-15.421a59.618,59.618,0,0,1,11.26-8.323c1.224-.612,3.427-1.469,4.406-2.081,1.1-.245,2.448-.734,3.549-.857.367,0,.979-.122,1.346-.122C38.208,388.332,38.086,388.332,38.453,389.066Zm71.965,5.508c-4.9,3.916-8.323.734-12.606-.979-8.2-3.3-13.952.857-19.093,5.263-3.549,3.06-8.567,8.445-8.567,12.239,0,2.937,4.284,5.018,6.487,5.14,14.932.734,23.254-9.179,25.824-10.648,3.549,2.081,6.731,6.487,10.77,6.242,4.161-.367,6.609-5.385,9.914-8.078-3.3,1.224-6.119,1.713-8.934.857-2.693-.857-4.406-3.794-6.609-5.752-7.955,8.078-14.075,10.893-22.03,11.015-3.427.122-9.546-.612-9.546-4.528-.122-4.284,5.14-8.445,11.749-6.976,0,0,8.934,4.161,11.994,4.039,3.916-.122,11.137-6.854,11.137-6.854C111.4,395.308,111.519,394.207,110.418,394.574Zm29.5,15.3c3.672-1.713,8.567-5.385,10.526-8.2,1.469-.122,5.263,1.346,6.119,2.081.245.367,1.1,2.325,1.346,2.815,1.224,2.57,3.182,4.9,4.773,7.466,3.549,5.63,3.427,5.508,5.875,2.448.979-1.224.979-1.469.49-3.3a55.024,55.024,0,0,0-2.448-6.242l-4.773-12.606a37.378,37.378,0,0,1-1.836-6.854,8.34,8.34,0,0,1,.49-3.549c1.346-4.528,2.57-15.666.122-18.97-1.224,0-2.081,1.469-2.693,2.2a16.017,16.017,0,0,0-2.081,2.937c-2.325,4.161-2.815,11.994-2.693,16.89.122,3.549,1.1,6.609.122,8.69a33.954,33.954,0,0,1-4.039-1.1,23.345,23.345,0,0,0-4.528-.734c-6.364-.49-11.872.734-15.788,5.263a20.043,20.043,0,0,0-4.406,6.731c-.245.612-.49,1.469-.122,1.958C128.042,412.932,134.284,412.32,139.914,409.872Zm-9.669-8.2a36.538,36.538,0,0,1,17.5-.857c-.49,1.1-2.57,1.713-3.672,2.2C139.547,404.977,130.979,404.977,130.245,401.672Zm93.506,13.463c1.836-.612,3.06-.857,3.549-1.836a22.915,22.915,0,0,0-3.916-.979c-5.508-2.57-7.221-7.466-10.526-12.973-7.221-11.872-12.851-2.325-12.729-.734,1.1.979,1.958,1.224,2.937,2.081,2.448,2.2,5.018,6.242,6.854,8.323C212.491,412.075,217.754,416.114,223.751,415.135Zm-18.359-30.842c.857-1.836-.367-4.039-1.469-5.018-.979-.734-1.591-.367-2.325.245-1.346.979-.979.367-2.448.979-2.081.734-5.508,5.385-6.364,7.588-1.958,4.651,3.3,7.1,6.731,4.161C201.231,390.657,204.536,386.618,205.393,384.293Zm-27.9,14.809c-.979-1.224-.49-10.281-.245-12.361.49-6.609,2.081-14.932,6.854-19.215a17.764,17.764,0,0,1,8.567-4.284c14.687-3.427,17.5,5.752,20.439,3.182.979-.857,2.57-2.693,2.081-4.161-.612-1.469-1.958-2.325-3.3-3.182-3.3-1.836-6.609-2.081-10.77-2.081-13.463,0-23.376,14.442-27.048,24.968-2.448,6.854-2.937,15.421-2.081,23.376.612,5.875.122,8.445,1.958,6.487a19.284,19.284,0,0,0,1.469-1.836c.734-.979,2.325-2.815,2.448-4.039.245-2.081-.367-3.794.857-5.508,2.937-.49,4.9,1.958,6.12,3.427,7.221,8.323,13.708,20.439,24.6,22.764,1.836.367,6.609-.245,8.323-.734,2.815-.734,4.651-3.427,4.651-4.528-.612,0-.734.367-2.081.367-3.3-.122-3.427-.734-5.875-1.591-13.1-4.406-16.645-15.666-25.09-23.866C183.362,390.535,180.18,396.287,177.488,399.1Z" transform="translate(-5.054 -307.31)" fill="#fff7b2" fill-rule="evenodd"/>
      <path id="Path_24" data-name="Path 24" d="M1570.591,573.79a3.869,3.869,0,0,1,.857,1.591c-1.224-.245-2.325-.857-2.448-2.2C1570.224,572.934,1569.979,573.056,1570.591,573.79Z" transform="translate(-1376.984 -496.93)" fill="#fdc500" fill-rule="evenodd"/>
      <path id="Path_25" data-name="Path 25" d="M34.732,383.923l.612-.122c.367.367.49.734.979.857.734-1.469-.245-1.346-.122-2.815.857-.49,6.731-9.179,8.323-11.137.612-.979,1.836-3.06,2.937-3.3,1.346,3.916-3.182,16.523-2.325,19.215,2.325-.857,7.466-12.239,11.627-13.463.49,2.2-.245,5.018-.612,6.976-.367,2.081-.612,4.284-.979,6.242-2.081,14.442-1.346,29.863,5.018,43.326,3.549,7.588,11.015,14.564,19.215,14.564,6.242,0,8.445-2.57,11.137-6.364,1.224-1.713,2.325-3.427,3.3-5.018.734-1.469,2.325-4.284,2.081-5.752-1.591.612-1.713,5.14-7.955,7.711-4.406,1.836-8.69.612-11.872-.979-6.242-3.06-10.648-9.3-13.708-18.114-4.651-12.973-4.039-26.314-2.57-39.042.122-.979,2.2-11.749.49-11.749-.122,0-.367-.367-1.958,1.1a19.5,19.5,0,0,0-1.591,1.591c-1.1,1.224-1.713,1.958-2.815,3.3l-4.9,6.854c-.245-1.591,4.161-16.767,1.958-18.114-1.224-.857-4.039,3.672-4.651,4.528L34.61,380.5c-1.1.245-4.161-1.713-9.791.857l-.857.49-.122.122-.122.122c-2.081.122-8.567,5.018-10.036,6.364A44.4,44.4,0,0,0,1.32,406.32c-.612,2.081-3.427,10.893,2.448,8.934C13.069,412.317,34.732,384.9,34.732,383.923Zm-1.958-.857c-.49.122-2.57,2.937-3.182,3.549L19.8,397.875c-1.958,1.958-12.851,13.83-16.767,11.382-2.2-4.773,5.018-12.851,7.833-15.421a58.855,58.855,0,0,1,11.26-8.445c1.346-.612,3.549-1.469,4.528-2.081a35.055,35.055,0,0,1,3.427-.857H31.55C32.529,382.454,32.407,382.332,32.774,383.066Zm71.965,5.508c-4.9,3.916-8.323.734-12.606-.979-8.078-3.3-13.83.979-19.093,5.385-3.549,2.937-8.567,8.323-8.567,12.117,0,3.06,4.284,5.018,6.609,5.14,14.809.734,23.132-9.057,25.7-10.648,3.672,2.081,6.854,6.609,10.893,6.242s6.487-5.385,9.791-7.955c-3.182,1.1-6,1.591-8.934.734-2.693-.857-4.406-3.794-6.609-5.752-7.833,8.078-13.952,10.893-21.908,11.015-3.549.122-9.546-.612-9.669-4.528-.122-4.284,5.14-8.445,11.749-6.976,0,0,9.057,4.161,11.994,4.039,4.039-.122,11.137-6.854,11.137-6.854C105.718,389.308,105.963,388.207,104.739,388.574Zm29.5,15.3c3.794-1.713,8.69-5.385,10.526-8.2a12.7,12.7,0,0,1,6.12,2.2,13.816,13.816,0,0,1,1.346,2.693c1.346,2.57,3.182,4.9,4.773,7.466,3.549,5.63,3.549,5.508,5.875,2.448.979-1.224,1.1-1.469.49-3.3a54.4,54.4,0,0,0-2.325-6.242l-4.773-12.484a41.774,41.774,0,0,1-1.958-6.976,6.823,6.823,0,0,1,.612-3.549c1.346-4.528,2.57-15.544.122-18.848-1.346-.122-2.2,1.346-2.815,2.2a16.778,16.778,0,0,0-2.081,2.815c-2.325,4.161-2.815,11.994-2.57,16.89.122,3.549,1.1,6.609,0,8.69a40.284,40.284,0,0,1-3.916-1.1,46.432,46.432,0,0,0-4.651-.734c-6.364-.49-11.749.734-15.788,5.263a22.089,22.089,0,0,0-4.406,6.731c-.245.612-.49,1.469-.122,1.958C122.364,406.932,128.728,406.32,134.235,403.872Zm-9.669-8.2a36.619,36.619,0,0,1,17.5-.857c-.49,1.224-2.57,1.836-3.672,2.2C133.868,398.977,125.3,398.977,124.567,395.672Zm93.628,13.463c1.713-.612,2.937-.857,3.427-1.836a20.38,20.38,0,0,0-3.916-.979c-5.508-2.57-7.221-7.343-10.526-12.973-7.221-11.749-12.851-2.325-12.729-.734,1.224.979,2.081,1.224,3.06,2.081,2.448,2.325,4.9,6.242,6.731,8.323C206.813,406.075,212.075,410.114,218.195,409.135Zm-18.358-30.842c.734-1.836-.367-4.039-1.591-5.018-.979-.734-1.469-.367-2.325.245-1.346,1.1-.979.367-2.448.979-1.958.734-5.385,5.385-6.242,7.588-1.958,4.651,3.182,7.221,6.609,4.161A27.8,27.8,0,0,0,199.836,378.293Zm-28.027,14.932c-.857-1.346-.367-10.4-.245-12.484.49-6.487,2.2-14.932,6.854-19.215a20.23,20.23,0,0,1,8.567-4.284c14.687-3.427,17.5,5.752,20.562,3.182.857-.857,2.57-2.693,1.958-4.161a6.965,6.965,0,0,0-3.3-3.182c-3.182-1.836-6.487-2.081-10.77-2.081-13.463,0-23.376,14.442-27.048,24.968-2.325,6.854-2.815,15.421-1.958,23.376.612,5.875,0,8.567,1.836,6.487a10.743,10.743,0,0,0,1.469-1.836c.734-.979,2.448-2.815,2.57-4.039.122-2.081-.49-3.794.734-5.385,2.937-.49,4.9,1.836,6.242,3.3,7.1,8.323,13.708,20.439,24.6,22.764,1.713.367,6.609-.245,8.323-.734,2.693-.734,4.528-3.427,4.651-4.528-.734,0-.857.367-2.2.367-3.3-.122-3.3-.612-5.875-1.469-13.1-4.528-16.523-15.788-25.09-23.988C177.684,384.535,174.5,390.287,171.809,393.225Z" transform="translate(-0.109 -302.044)" fill="#fdc500" fill-rule="evenodd"/>
      <path id="Path_26" data-name="Path 26" d="M654.078,856.645c-.857,0-1.224-.367-1.346-1.224-.122-.612-.122-1.346-.245-2.081a11.2,11.2,0,0,1-.122-1.958V848.69q0-.734-.367-.734a2.132,2.132,0,0,0-1.591,1.1,7.932,7.932,0,0,0-1.346,2.693v.979a2.082,2.082,0,0,0-.122.857v.857a2.757,2.757,0,0,0-.122.857,1.347,1.347,0,1,1-2.693,0,6.9,6.9,0,0,1-.122-.857v-.857a24.9,24.9,0,0,1,.122-2.693c0-1.1.122-2.081.122-2.693v-.857a3.445,3.445,0,0,1-.122-.979.924.924,0,0,1,.49-.857,1.39,1.39,0,0,1,.979-.367c.857,0,1.346.49,1.346,1.469v.122a4.261,4.261,0,0,1,3.06-1.469,2.55,2.55,0,0,1,2.57,1.591,7.2,7.2,0,0,1,.49,3.182v1.346a14.136,14.136,0,0,0,.245,1.958,13.344,13.344,0,0,1,.122,2.081,1.111,1.111,0,0,1-.367.857A1.39,1.39,0,0,1,654.078,856.645Zm5.14-12.606a2.2,2.2,0,0,1-1.1-.49,1.193,1.193,0,0,1-.49-1.1,1.113,1.113,0,0,1,.49-.979,2.2,2.2,0,0,1,1.1-.49,1.551,1.551,0,0,1,1.1.49,1.113,1.113,0,0,1,.49.979,1.193,1.193,0,0,1-.49,1.1A1.551,1.551,0,0,1,659.218,844.039Zm.857,7.221V853.1c0,.857.122,1.469.122,1.836a1.511,1.511,0,0,1-.49.979,1.2,1.2,0,0,1-.979.367,1.264,1.264,0,0,1-1.346-1.346v-5.875a14.853,14.853,0,0,0,.122-2.2,1.264,1.264,0,0,1,1.346-1.346,1.2,1.2,0,0,1,.979.367,1.511,1.511,0,0,1,.49.979c0,.612-.122,1.346-.122,2.2A14.852,14.852,0,0,0,660.075,851.26Zm14.32.245v4.284a.9.9,0,0,1-.245.734.993.993,0,0,1-.979.49,1.243,1.243,0,0,1-1.224-.612,1.974,1.974,0,0,1-.367-1.1c0-1.469,0-3.672.122-6.609s.122-5.14.122-6.609a1.39,1.39,0,0,1,.367-.979,1.709,1.709,0,0,1,1.1-.367,1.628,1.628,0,0,1,.979.367,1.39,1.39,0,0,1,.367.979,20.027,20.027,0,0,1-.122,2.448c0,1.1-.122,1.958-.122,2.325q.734-.551,5.14-5.508a1.5,1.5,0,0,1,1.1-.49,1.263,1.263,0,0,1,1.346,1.346c0,.49-.734,1.469-2.325,3.182-1.1,1.346-2.448,2.57-3.672,3.794.734.734,1.469,1.346,2.2,2.081.857.734,1.591,1.346,2.2,1.958a4.347,4.347,0,0,0,1.1.49,1.4,1.4,0,0,1,1.1,1.346,3.114,3.114,0,0,1-.245.857,1.113,1.113,0,0,1-.979.49c-.979,0-2.2-.612-3.794-1.836C677.209,854.2,676.108,853.218,674.394,851.5Zm12.484-4.651a4.657,4.657,0,0,1,1.591-1.1,4.472,4.472,0,0,1,1.836-.367,3.037,3.037,0,0,1,2.448.979,3.634,3.634,0,0,1,.612,2.2c0,.857.122,1.591.122,2.448.122,1.1.245,1.713.245,1.958a9.509,9.509,0,0,0,.245,1.958.45.45,0,0,1,.122.367.924.924,0,0,1-.49.857,1.39,1.39,0,0,1-.979.367,1.1,1.1,0,0,1-1.224-.979,7.4,7.4,0,0,1-.49-2.2,17.33,17.33,0,0,1-.122-2.325v-2.448c-.122-.245-.245-.49-.49-.49a3.017,3.017,0,0,0-2.081.979A14.569,14.569,0,0,0,687,851.015a13.383,13.383,0,0,1-.367,4.284,1.178,1.178,0,0,1-1.224.857,1.39,1.39,0,0,1-.979-.367,1.239,1.239,0,0,1-.49-.857,5.3,5.3,0,0,0,.122-.612,10.082,10.082,0,0,0,.122-2.693v-6.609l.122-.367V843.06a2.757,2.757,0,0,0-.122-.857v-.857A1.264,1.264,0,0,1,685.532,840a1.4,1.4,0,0,1,1.346,1.1,7.047,7.047,0,0,1,.122,1.836V844.9A10.529,10.529,0,0,0,686.878,846.854Zm17.5,9.669a3.146,3.146,0,0,1-1.469-.857c-.612.245-1.224.49-1.591.612a7.045,7.045,0,0,1-1.224.245,5,5,0,0,1-3.672-1.346,5.617,5.617,0,0,1-1.1-3.794,5.545,5.545,0,0,1,1.714-4.161,6.116,6.116,0,0,1,4.284-1.713,6.027,6.027,0,0,1,2.2.612q1.469.551,1.469,1.469a.935.935,0,0,1-.245.612c0,.245-.122.612-.122.979s-.122.857-.122,1.346a7.752,7.752,0,0,0,.367,2.815s.122.367.367.979a5.407,5.407,0,0,1,.367.979,1.111,1.111,0,0,1-.367.857A1.322,1.322,0,0,1,704.38,856.523Zm-2.57-6.731c0-.245.122-.49.122-.734a3.042,3.042,0,0,1,.122-.979c-.122,0-.245-.122-.367-.122h-.245a3.261,3.261,0,0,0-2.448,1.1,3.417,3.417,0,0,0-.979,2.448,3.105,3.105,0,0,0,.49,1.958,1.647,1.647,0,0,0,1.469.612,3.389,3.389,0,0,0,1.1-.122,4.959,4.959,0,0,0,1.1-.612A26.422,26.422,0,0,1,701.81,849.791Zm7.833-2.693a4.2,4.2,0,0,1,2.815-1.713,2.548,2.548,0,0,1,2.325,1.1,4.751,4.751,0,0,1,1.346-.734,3.36,3.36,0,0,1,1.591-.245,2.485,2.485,0,0,1,2.57,1.958,17.932,17.932,0,0,1,.49,2.693c.122.979.367,2.815.734,5.385a.924.924,0,0,1-.49.857,1.39,1.39,0,0,1-.979.367,1.234,1.234,0,0,1-1.346-1.1q-.183-1.1-.367-2.937c-.122-1.346-.245-2.325-.245-2.937-.245-1.1-.49-1.713-.734-1.713a3.089,3.089,0,0,0-1.1.49,4.272,4.272,0,0,0-1.1.734,18.756,18.756,0,0,0,.245,3.3c.122,1.469.245,2.57.245,3.3a1.111,1.111,0,0,1-.367.857,1.489,1.489,0,0,1-1.958,0,1.111,1.111,0,0,1-.367-.857c0-.857-.122-1.958-.245-3.427a18.755,18.755,0,0,1-.245-3.3c0-.367-.122-.734-.122-.979a6.428,6.428,0,0,0-2.325,2.2.427.427,0,0,0-.122.245,29.991,29.991,0,0,0-.122,3.06v1.469a.924.924,0,0,1-.49.857,1.318,1.318,0,0,1-.979.245,1.176,1.176,0,0,1-1.1-.734,4,4,0,0,1-.245-1.469v-6.731a3.615,3.615,0,0,1,.245-1.591,1.136,1.136,0,0,1,1.1-.857,1.113,1.113,0,0,1,.979.49.924.924,0,0,1,.49.857C709.765,846.12,709.765,846.364,709.643,847.1Zm22.03,9.546a1.25,1.25,0,0,1-1.346-1.224,13.63,13.63,0,0,0-.245-2.081,11.2,11.2,0,0,1-.122-1.958v-1.836a.536.536,0,0,0,.122-.367v-.49q0-.734-.367-.734a2.13,2.13,0,0,0-1.714,1.1,7.826,7.826,0,0,0-1.224,2.693c0,.245-.122.612-.122.979,0,.245-.122.612-.122.857v.857a6.9,6.9,0,0,1-.122.857,1.347,1.347,0,1,1-2.693,0,2.757,2.757,0,0,0-.122-.857v-.857a24.9,24.9,0,0,1,.122-2.693,23.76,23.76,0,0,0,.122-2.693v-1.836a1.111,1.111,0,0,1,.367-.857,1.39,1.39,0,0,1,.979-.367c.857,0,1.346.49,1.346,1.469v.122a4.48,4.48,0,0,1,3.06-1.469,2.612,2.612,0,0,1,2.693,1.591,10.232,10.232,0,0,1,.367,3.182v1.346a14.134,14.134,0,0,0,.245,1.958,15.626,15.626,0,0,1,.245,2.081,1.111,1.111,0,0,1-.367.857A1.709,1.709,0,0,1,731.673,856.645Zm5.14-12.606a2.2,2.2,0,0,1-1.1-.49,1.5,1.5,0,0,1-.367-1.1,1.39,1.39,0,0,1,.367-.979,2.2,2.2,0,0,1,1.1-.49,1.551,1.551,0,0,1,1.1.49,1.113,1.113,0,0,1,.49.979,1.193,1.193,0,0,1-.49,1.1A1.551,1.551,0,0,1,736.813,844.039Zm.857,7.221a12.1,12.1,0,0,0,.122,1.836v1.836a1.264,1.264,0,0,1-1.346,1.346,1.2,1.2,0,0,1-.979-.367,1.113,1.113,0,0,1-.49-.979V851.26a14.852,14.852,0,0,1,.122-2.2v-2.2a1.113,1.113,0,0,1,.49-.979,1.2,1.2,0,0,1,.979-.367,1.263,1.263,0,0,1,1.346,1.346,14.86,14.86,0,0,1-.122,2.2C737.792,849.914,737.67,850.648,737.67,851.26Z" transform="translate(-566.949 -731.195)" fill="#afcb3e" fill-rule="evenodd"/>
      <path id="Path_27" data-name="Path 27" d="M657.6,100A30.536,30.536,0,1,1,627,130.475,30.557,30.557,0,0,1,657.6,100Zm-11.749,13.463a7.254,7.254,0,0,0-.857,1.958,12.82,12.82,0,0,0-.979-1.346c-.612-.49-1.224-.49-1.346.367-.245,1.224.245,3.182.367,4.284a8.63,8.63,0,0,1-.857-1.1,3.3,3.3,0,0,0-.857-.979c-.49-.367-1.1-.245-1.224.367a3.389,3.389,0,0,0,.122,1.591c-.49-.122-2.081-1.224-2.57-.612-.612.612.367,2.081.49,2.57-.612-.122-2.448-.612-2.325.612.122.612,1.346,1.224,1.469,1.713.367,0,.122,0,.612.245a1.691,1.691,0,0,0,.49.367,5.324,5.324,0,0,0,.857.734c1.1.734,2.937,1.713,3.794,2.448,1.836,1.469,1.469,1.591,1.469,1.591h0c-.734.245-3.06-1.713-3.549-2.081-.367-.367-2.937-2.448-3.549-1.836-.245.612.245.857.367,1.346-.49,0-1.713-.245-1.713.49,0,.367.734.979.979,1.224l-.612.122c-.245.245-.612.245-.612.612-.122.367.245.49.49.612l2.2.612c-.367.122-1.469.367-1.713.49-.612.734.612.979.979,1.1l-.367.245c-.122.367-.612.367-.612,1.1a3.359,3.359,0,0,0,1.591.245c-.122.245-.734.857-.367,1.346.734.612,3.549-1.836,4.039-1.958a1.9,1.9,0,0,1,.979-.734c-.122.367-.49.734-.367,1.224.367.245.49,0,.857-.122a3.389,3.389,0,0,0,.122,1.1c.49,0,.734-.367.979-.612.245.245,0,.122.49.857.367-.122.367-.122.49-.612.122-.245.122-.49.245-.734.122,3.06-3.672,16.89-4.9,17.747-.245.734-1.346,1.346-.49,1.958.734.367,1.224-1.469,1.714-1.836a25.116,25.116,0,0,1,.979-2.325l.122-.122a17.865,17.865,0,0,1,3.182-2.2,24.342,24.342,0,0,1,4.161-1.591c-.122.122-.245.122-.49.245s-.245.122-.245.49c.49.122.367,0,.612.122a1.312,1.312,0,0,0-.245.734,1.552,1.552,0,0,0,.734-.122c0,.245-.122.367,0,.612a1.239,1.239,0,0,0,.857-.49c-.122.245-.245.612-.367.857,0,.367-1.224,2.57-.734,2.937.367.122.734-.367.857-.49.122.49.122.734.367.979.612,0,.49-.367.734-.49v-.245c.245.122.612.979.857.367a3.039,3.039,0,0,0,.122-1.1l.734,1.346c.122.122.245.367.49.245a.489.489,0,0,0,.245-.49v-.49c.245.122.734.49.979.49.49-.122.122-.857,0-1.224.367.122.612.245.979,0,.367-.49-1.469-1.836-1.713-2.081s-1.958-1.469-1.958-1.958h.122s0-.245,1.224.734c.612.49,1.591,1.469,2.2,2.081a2.149,2.149,0,0,0,.612.49c.122.122.122.245.245.367.367.122.245.122.245.245.367,0,.979.734,1.469.734.734-.122.122-1.224,0-1.591.367,0,1.469.367,1.836-.122.245-.49-.734-1.346-.857-1.591a3.388,3.388,0,0,0,1.1-.122.471.471,0,0,0,0-.857,2.559,2.559,0,0,0-.734-.49,5.966,5.966,0,0,1-.857-.367,11.112,11.112,0,0,0,2.815-.367c.612-.245.49-.612.122-.979-.367-.245-.734-.245-1.1-.49a5.35,5.35,0,0,0,1.224-.734c0-.122.612-.734-.245-.979a11.8,11.8,0,0,0-1.469-.245,5.322,5.322,0,0,0,.734-.857c.122-.367,0-.857-.49-.734a7.946,7.946,0,0,0-2.57.857c.122-.245.49-.49.612-.857.367-.49,0-.857-.49-.734l-.857.245c0-.367.49-1.469,0-1.836-.367-.245-1.469.612-1.591.857-.122-.612,0-1.836-.979-1.469l-.367.612-.122.122c0,.245-.122.367-.245.612a1.739,1.739,0,0,0-.245.734,18.729,18.729,0,0,1-1.591,3.916c0,.122-.122.245-.367.245-.122-.49.734-2.081.979-2.57.245-.612.979-1.958.734-2.57h-.122c-.49-.122-.49.245-.857.367,0-.245-.122-1.1-.49-.979-.367,0-.612.612-.734.734-.122-.122-.245-.612-.49-.612-.367-.245-.367.245-.49.367v1.591c-.245-.245-.49-.979-.734-1.1-.49-.245-.367.612-.49.857-.122-.122-.122,0-.122-.245a.636.636,0,0,1-.49-.245h-.245c-.245.122-.122.122-.245.245l.122.857c-.245,0-.49-.245-.857,0-.122.367.122.49.367.857h0a7.384,7.384,0,0,1,.979.979,3.3,3.3,0,0,1,.979.857c-.49,0-1.224-.367-1.591-.122-.122.367.245.49.367.734a2.592,2.592,0,0,0-.857.367c.122.49.49.49.857.612l-.367.245c-.122.122-.245.245-.122.49.245.245.367,0,.734.122a14.243,14.243,0,0,1-1.836.734,18.469,18.469,0,0,0-3.427,1.836c-.122,0-.49.367-.857.612,1.1-3.794,2.815-12.117,3.3-13.1.245.49,0,.857.49,1.1a.763.763,0,0,0,.612-.367l.122-.612c.367.367.612.979,1.224.979a2.421,2.421,0,0,0,.245-1.346c.49.245.612.612,1.224.367.245-.612-.49-1.713-.734-2.2a6.741,6.741,0,0,1,1.713,1.1,7.36,7.36,0,0,1,1.591,1.1c.245-.122.122-.122.122,0,.49.122.857.49,1.346.245.122-.612-.245-.979-.367-1.346l1.346-.122c.122-.122.122.122.245-.245,0-.245-.122-.367-.122-.49-.245-.245-.367-.245-.49-.49-.367-.122-.245-.122-.367-.245.367-.122,1.591-.367.979-.979a7.076,7.076,0,0,0-1.713-.612l2.2-.612c.122-.122.857-.367.49-.857a2.068,2.068,0,0,0-1.224-.367c.122-.367,1.1-.979.979-1.469s-1.224-.49-1.713-.245c.122-.612.612-.734.367-1.469l-.122-.122c-.979-.122-2.693,1.469-3.549,1.958-.49.367-2.57,2.2-3.182,2.2-.122-.367-.122-.49.122-.612,1.224-1.346,3.549-2.448,5.14-3.549a3.718,3.718,0,0,0,.857-.612,4.294,4.294,0,0,1,.979-.612c0-.122-.122,0,0-.122l.734-.734c.367-1.591-1.346-.979-2.325-.857.245-.367,1.1-2.2.612-2.693-.612-.612-2.081.49-2.57.734l.122-1.469c-.122-.734-.612-1.1-1.346-.49-.367.367-.612.979-.979,1.346a21.447,21.447,0,0,0,.49-4.039c-.122-.857-.857-.857-1.346-.49a8.576,8.576,0,0,0-.979,1.224c-.245-.367-.245-.979-.734-1.958C646.7,112.239,645.848,113.341,645.848,113.463Z" transform="translate(-550.275 -81.764)" fill="#b0cb1f" fill-rule="evenodd"/>
      <text id="S" transform="translate(76.813 33.916) rotate(-47)" fill="#fff" font-size="13" font-family="ComicSansMS-Bold, Comic Sans MS" font-weight="700"><tspan x="0" y="0">S</tspan></text>
      <text id="i" transform="translate(82.964 26.102) rotate(-42)" fill="#fff" font-size="12" font-family="ComicSansMS-Bold, Comic Sans MS" font-weight="700"><tspan x="0" y="0">i</tspan></text>
      <text id="n" transform="matrix(0.839, -0.545, 0.545, 0.839, 85.363, 23.464)" fill="#fff" font-size="14" font-family="ComicSansMS-Bold, Comic Sans MS" font-weight="700"><tspan x="0" y="0">n</tspan></text>
      <text id="c" transform="translate(90.8 17.284)" fill="#fff" font-size="12" font-family="ComicSansMS-Bold, Comic Sans MS" font-weight="700"><tspan x="0" y="0">c</tspan></text>
      <text id="e" transform="translate(97.409 15.346)" fill="#fff" font-size="13" font-family="ComicSansMS-Bold, Comic Sans MS" font-weight="700"><tspan x="0" y="0">e</tspan></text>
      <text id="_1" data-name="1" transform="translate(109.46 14.395) rotate(8)" fill="#fff" font-size="13" font-family="ComicSansMS-Bold, Comic Sans MS" font-weight="700"><tspan x="0" y="0">1</tspan></text>
      <text id="_9" data-name="9" transform="translate(116.97 15.411) rotate(20)" fill="#fff" font-size="13" font-family="ComicSansMS-Bold, Comic Sans MS" font-weight="700"><tspan x="0" y="0">9</tspan></text>
      <text id="_4" data-name="4" transform="translate(124.063 20.45) rotate(30)" fill="#fff" font-size="13" font-family="ComicSansMS-Bold, Comic Sans MS" font-weight="700"><tspan x="0" y="0">4</tspan></text>
      <text id="_2" data-name="2" transform="translate(131.811 24.923) rotate(43)" fill="#fff" font-size="13" font-family="ComicSansMS-Bold, Comic Sans MS" font-weight="700"><tspan x="0" y="0">2</tspan></text>
      <circle id="Ellipse_21" data-name="Ellipse 21" cx="33.412" cy="33.412" r="33.412" transform="translate(73.91 15.299)" fill="none"/>
    </g>
  </g>
</svg>
