<svg xmlns="http://www.w3.org/2000/svg" width="414" height="497" viewBox="0 0 414 497">
  <g id="mobile_item" data-name="mobile item" transform="translate(0 27)">
    <rect id="Rectangle_47" data-name="Rectangle 47" width="414" height="379" transform="translate(0 91)" fill="#1a2855"/>
    <path id="wave_5_" data-name="wave (5)" d="M0,149.76,7.676,137.3C15.324,124.6,30.763,100.035,46,102.96c15.324,2.925,30.763,34.515,46,24.979,15.324-9.184,30.762-59.494,46-59.319,15.324-.175,30.762,50.134,46,49.959,15.324.175,30.762-50.134,46-62.419,15.324-12.285,30.762,12.285,46,28.08,15.324,15.795,30.763,21.645,46,18.72,15.324-2.925,30.762-15.795,46-3.1,15.324,12.46,30.763,49.9,38.238,68.62L414,187.2V0H0Z" transform="translate(0 112.417)" fill="#fdc500"/>
    <path id="wave_5_2" data-name="wave (5)" d="M414,32.1l-7.676,10.683C398.676,53.666,383.237,74.731,368,72.223c-15.324-2.508-30.762-29.592-46-21.416-15.324,7.874-30.762,51.008-46,50.857-15.324.15-30.763-42.983-46-42.833-15.324-.15-30.762,42.983-46,53.516-15.324,10.533-30.762-10.533-46-24.074-15.324-13.542-30.763-18.557-46-16.05-15.324,2.508-30.763,13.542-46,2.658C30.676,64.2,15.237,32.1,7.763,16.05L0,0V160.5H414Z" transform="translate(0 -27)" fill="#fdc500"/>
  </g>
</svg>
