<svg xmlns="http://www.w3.org/2000/svg" width="1918" height="1528.993" viewBox="0 0 1918 1528.993">
  <g id="reviewscontainer" transform="translate(0 71.993)">
    <rect id="Rectangle_47" data-name="Rectangle 47" width="1918" height="1366" transform="translate(0 91)" fill="#1a2855"/>
    <path id="wave_5_" data-name="wave (5)" d="M0,146.725l35.563-12.208c35.43-12.437,106.955-36.509,177.548-33.644,70.993,2.866,142.518,33.816,213.111,24.473,70.993-9,142.518-58.289,213.111-58.117,70.993-.172,142.518,49.119,213.111,48.947,70.993.172,142.518-49.119,213.111-61.155,70.993-12.036,142.518,12.036,213.111,27.511a839.557,839.557,0,0,0,213.111,18.341c70.993-2.866,142.518-15.475,213.111-3.038,70.993,12.208,142.518,48.889,177.149,67.23L1918,183.407V0H0Z" transform="translate(0 144.018)" fill="#fdc500"/>
    <path id="wave_5_2" data-name="wave (5)" d="M1918,43.3l-35.563,14.98c-35.43,15.261-106.955,44.8-177.548,41.283-70.993-3.516-142.518-41.494-213.111-30.03-70.993,11.042-142.518,71.524-213.111,71.313-70.993.211-142.518-60.271-213.111-60.06-70.993-.211-142.518,60.271-213.111,75.04-70.993,14.769-142.518-14.769-213.111-33.758A689.377,689.377,0,0,0,426.222,99.561c-70.993,3.516-142.518,18.989-213.111,3.727C142.118,88.309,70.593,43.3,35.963,20.794L0-.949V223.339H1918Z" transform="translate(0 -71.044)" fill="#fdc500"/>
  </g>
</svg>
