<svg xmlns="http://www.w3.org/2000/svg" width="1734" height="845.747" viewBox="0 0 1734 845.747">
  <path id="Subtraction_1" data-name="Subtraction 1" d="M60,1206.88h0V361.133c90.149,33.032,217.757,60.685,369.031,79.968,76.687,9.775,158.8,17.324,244.054,22.435,87.915,5.271,179.124,7.944,271.093,7.944,86.453,0,172.37-2.365,255.365-7.03,80.573-4.529,158.63-11.235,232-19.933,72.1-8.546,139.652-19.01,200.775-31.1,60.916-12.048,115.312-25.684,161.677-40.528v833.582c-32.761-14.786-78.351-28.632-135.5-41.154-56.615-12.4-123.508-23.278-198.82-32.32-156.343-18.77-340.383-28.69-532.224-28.69-192.292,0-376.689,9.964-533.256,28.814-75.413,9.08-142.349,20-198.948,32.45C138.106,1178.143,92.6,1192.041,60,1206.88Z" transform="translate(-60 -361.133)" fill="#1a2855"/>
</svg>
