<svg xmlns="http://www.w3.org/2000/svg" width="512" height="512" viewBox="0 0 512 512">
  <g id="titlebar_logo" transform="translate(446 1103)">
    <circle id="Ellipse_49" data-name="Ellipse 49" cx="256" cy="256" r="256" transform="translate(-446 -1103)" fill="#1a2855"/>
    <g id="Layer_x0020_1" transform="translate(-432.754 -1018.282)">
      <g id="_998730512">
        <path id="Path_23" data-name="Path 23" d="M81.341,424.887l1.607-.252c.8.757,1.071,1.514,2.143,1.767,1.339-3.028-.8-2.776-.268-5.8,1.607-1.262,14.731-18.927,17.945-22.965,1.607-2.019,4.285-6.309,6.7-6.814,2.946,8.076-7.232,34.07-5.089,39.369,5.089-1.514,16.07-24.984,25.444-27.508.8,4.543-.8,10.095-1.339,14.133-.8,4.543-1.607,9.085-2.143,13.123-4.821,29.527-2.946,61.578,10.981,89.338,7.767,15.647,24.105,30.032,41.782,30.032,13.66,0,18.748-5.3,24.641-13.375a75.859,75.859,0,0,0,6.964-10.095c1.875-3.028,5.089-8.833,4.553-12.114-3.482,1.514-3.75,10.852-17.409,16.151-9.374,3.533-18.748,1.262-25.712-2.019-13.66-6.309-23.3-19.18-30.265-37.35-9.91-26.751-8.838-54.511-5.357-80.505.268-2.019,4.821-24.227,1.071-24.227-.536,0-1.071-1.01-4.285,2.019a41.537,41.537,0,0,0-3.482,3.281c-2.411,2.776-4.018,4.29-6.16,7.066l-10.713,14.133c-.536-3.281,8.839-34.574,4.285-37.35-2.678-1.767-9.106,7.571-10.178,9.338L81.341,417.82c-2.411.252-9.106-3.533-21.695,1.767L58.04,420.6a2878.731,2878.731,0,0,1-.536.5c-4.553.252-18.748,10.347-22.23,13.123A89.355,89.355,0,0,0,8.49,471.07c-1.607,4.29-7.5,22.208,5.357,18.423C34.2,483.436,81.609,426.906,81.341,424.887Zm-4.017-1.767c-1.071.252-5.892,6.057-6.964,7.319L48.665,453.656c-4.018,4.038-28.123,28.517-36.425,23.218-4.821-9.59,10.981-26.246,17.141-31.8,7.5-6.309,15.267-12.366,24.641-17.161,2.678-1.262,7.5-3.028,9.642-4.29,2.411-.5,5.357-1.514,7.767-1.767.8,0,2.143-.252,2.946-.252C76.788,421.606,76.52,421.606,77.324,423.12ZM234.81,434.477c-10.713,8.076-18.213,1.514-27.587-2.019-17.945-6.814-30.533,1.767-41.782,10.852-7.767,6.309-18.748,17.413-18.748,25.237,0,6.057,9.374,10.347,14.2,10.6,32.676,1.514,50.888-18.927,56.513-21.956,7.767,4.29,14.731,13.375,23.569,12.871,9.106-.757,14.463-11.1,21.695-16.656-7.232,2.524-13.392,3.533-19.552,1.767-5.892-1.767-9.642-7.823-14.463-11.861-17.409,16.656-30.8,22.461-48.21,22.713-7.5.252-20.891-1.262-20.891-9.338-.268-8.833,11.249-17.413,25.712-14.385,0,0,19.552,8.58,26.248,8.328,8.571-.252,24.373-14.133,24.373-14.133C236.953,435.991,237.221,433.719,234.81,434.477Zm64.548,31.546c8.035-3.533,18.748-11.1,23.034-16.909,3.214-.252,11.517,2.776,13.392,4.29.536.757,2.41,4.795,2.946,5.8,2.678,5.3,6.964,10.095,10.445,15.394,7.767,11.609,7.5,11.356,12.856,5.047,2.143-2.524,2.143-3.028,1.071-6.814a109.64,109.64,0,0,0-5.357-12.871L347.3,433.972a73.565,73.565,0,0,1-4.017-14.133c-.536-2.776.536-5.047,1.071-7.319,2.946-9.338,5.625-32.3.268-39.117-2.678,0-4.553,3.028-5.892,4.543A33.11,33.11,0,0,0,334.177,384c-5.089,8.58-6.16,24.732-5.892,34.827.268,7.319,2.411,13.628.268,17.918-1.071,0-7.232-1.767-8.839-2.271a53.963,53.963,0,0,0-9.91-1.514c-13.927-1.009-25.98,1.514-34.551,10.852-4.018,4.038-7.767,8.833-9.642,13.88-.536,1.262-1.071,3.028-.268,4.038C273.378,472.332,287.038,471.07,299.358,466.022ZM278.2,449.114c9.91-3.281,27.051-4.29,38.3-1.767-1.071,2.271-5.625,3.533-8.035,4.543C298.555,455.928,279.806,455.928,278.2,449.114Zm204.625,27.76c4.017-1.262,6.7-1.767,7.767-3.786-1.339-.757-7.232-1.767-8.571-2.019-12.053-5.3-15.8-15.394-23.034-26.751-15.8-24.48-28.123-4.795-27.855-1.514,2.411,2.019,4.285,2.524,6.428,4.29,5.357,4.543,10.981,12.871,15,17.161C458.184,470.565,469.7,478.893,482.825,476.874Zm-40.175-63.6c1.875-3.786-.8-8.328-3.214-10.347-2.143-1.514-3.482-.757-5.089.5-2.946,2.019-2.143.757-5.357,2.019-4.553,1.514-12.053,11.1-13.927,15.647-4.285,9.59,7.232,14.637,14.731,8.581C433.543,426.4,440.775,418.073,442.649,413.278Zm-61.066,30.536c-2.143-2.524-1.071-21.2-.536-25.489,1.071-13.628,4.553-30.789,15-39.622,5.089-4.543,10.981-7.066,18.748-8.833,32.14-7.066,38.3,11.861,44.728,6.561,2.143-1.767,5.625-5.552,4.553-8.58-1.339-3.029-4.285-4.795-7.232-6.562-7.232-3.786-14.463-4.29-23.569-4.29-29.462,0-51.156,29.779-59.191,51.483-5.357,14.133-6.428,31.8-4.553,48.2,1.339,12.114.268,17.413,4.285,13.375a40.267,40.267,0,0,0,3.214-3.786c1.607-2.019,5.089-5.8,5.357-8.328.536-4.29-.8-7.823,1.875-11.357,6.428-1.009,10.713,4.038,13.392,7.066,15.8,17.161,30,42.145,53.835,46.94,4.017.757,14.463-.5,18.213-1.514,6.16-1.514,10.178-7.066,10.178-9.338-1.339,0-1.607.757-4.553.757-7.232-.252-7.5-1.514-12.856-3.281-28.658-9.085-36.425-32.3-54.906-49.211C394.439,426.149,387.476,438.01,381.583,443.814Z" transform="translate(-4.321 -254.539)" fill="#fff7b2" fill-rule="evenodd"/>
        <path id="Path_24" data-name="Path 24" d="M1572.281,574.562a7.977,7.977,0,0,1,1.767,3.281c-2.523-.5-4.795-1.766-5.047-4.543C1571.524,572.8,1571.019,573.048,1572.281,574.562Z" transform="translate(-1145.064 -416.076)" fill="#fdc500" fill-rule="evenodd"/>
        <path id="Path_25" data-name="Path 25" d="M75.878,418.887l1.339-.252c.8.757,1.071,1.514,2.143,1.767,1.607-3.028-.536-2.776-.268-5.8,1.875-1.01,14.731-18.927,18.213-22.965,1.339-2.019,4.018-6.309,6.428-6.814,2.946,8.076-6.964,34.07-5.089,39.622,5.089-1.767,16.338-25.237,25.445-27.76,1.071,4.543-.536,10.347-1.339,14.385-.8,4.29-1.339,8.833-2.143,12.871-4.553,29.779-2.946,61.578,10.981,89.338,7.767,15.647,24.105,30.032,42.05,30.032,13.66,0,18.481-5.3,24.373-13.123,2.678-3.533,5.089-7.066,7.232-10.347,1.607-3.028,5.089-8.833,4.553-11.861-3.482,1.262-3.75,10.6-17.409,15.9-9.642,3.786-19.016,1.262-25.98-2.019-13.66-6.309-23.3-19.18-30-37.35-10.178-26.751-8.839-54.259-5.625-80.5.268-2.019,4.821-24.227,1.071-24.227-.268,0-.8-.757-4.285,2.271a41.548,41.548,0,0,0-3.482,3.281c-2.411,2.524-3.75,4.038-6.16,6.814l-10.713,14.133c-.536-3.281,9.106-34.574,4.285-37.35-2.678-1.767-8.839,7.571-10.178,9.338L75.61,411.82c-2.411.5-9.106-3.533-21.427,1.767l-1.875,1.01-.268.252-.268.252c-4.553.252-18.749,10.347-21.963,13.123A91.654,91.654,0,0,0,2.758,465.07c-1.339,4.29-7.5,22.461,5.357,18.423C28.471,477.436,75.878,420.906,75.878,418.887Zm-4.285-1.767c-1.071.252-5.625,6.057-6.964,7.319L43.2,447.657c-4.285,4.038-28.123,28.517-36.694,23.47-4.821-9.842,10.981-26.5,17.142-31.8a128.472,128.472,0,0,1,24.641-17.413c2.946-1.262,7.767-3.028,9.91-4.29,2.411-.5,5.089-1.514,7.5-1.767h3.214C71.057,415.858,70.789,415.606,71.593,417.12Zm157.488,11.357c-10.714,8.076-18.213,1.514-27.587-2.019-17.677-6.814-30.266,2.019-41.783,11.1-7.767,6.057-18.749,17.161-18.749,24.984,0,6.309,9.374,10.347,14.463,10.6,32.408,1.514,50.621-18.675,56.246-21.956,8.035,4.29,15,13.628,23.838,12.871s14.2-11.1,21.427-16.4c-6.964,2.271-13.124,3.281-19.552,1.514-5.892-1.767-9.642-7.823-14.463-11.861-17.142,16.656-30.533,22.461-47.943,22.713-7.767.252-20.891-1.262-21.159-9.338-.268-8.833,11.249-17.413,25.712-14.385,0,0,19.82,8.581,26.248,8.328,8.839-.252,24.373-14.133,24.373-14.133C231.224,429.991,231.759,427.72,229.081,428.477Zm64.549,31.546c8.3-3.533,19.016-11.1,23.034-16.909,3.214-.252,11.517,2.776,13.392,4.543.8.5,2.411,4.543,2.946,5.552,2.946,5.3,6.964,10.095,10.446,15.394,7.767,11.609,7.767,11.357,12.856,5.047,2.143-2.524,2.411-3.028,1.071-6.814a108.174,108.174,0,0,0-5.089-12.871L341.84,428.224a82.308,82.308,0,0,1-4.285-14.385c-.536-2.776.536-5.047,1.339-7.319,2.946-9.338,5.625-32.051.268-38.865-2.946-.252-4.821,2.776-6.16,4.543a34.812,34.812,0,0,0-4.553,5.8c-5.089,8.58-6.16,24.732-5.625,34.827.268,7.319,2.411,13.628,0,17.918-.8,0-6.964-1.767-8.571-2.271-3.214-.757-6.428-1.009-10.178-1.514-13.928-1.009-25.712,1.514-34.551,10.852a45.394,45.394,0,0,0-9.642,13.88c-.536,1.262-1.071,3.028-.268,4.038C267.649,466.332,281.577,465.07,293.63,460.022Zm-21.159-16.909c10.178-3.281,27.052-4.29,38.3-1.767-1.071,2.524-5.625,3.786-8.035,4.543C292.826,449.928,274.078,449.928,272.471,443.114Zm204.9,27.76c3.75-1.262,6.428-1.767,7.5-3.785-1.339-.757-6.964-1.767-8.571-2.019-12.053-5.3-15.8-15.142-23.034-26.751-15.8-24.227-28.123-4.8-27.855-1.514,2.678,2.019,4.553,2.524,6.7,4.29,5.357,4.795,10.713,12.871,14.731,17.161C452.457,464.565,463.974,472.893,477.366,470.874Zm-40.176-63.6c1.607-3.785-.8-8.328-3.482-10.347-2.143-1.514-3.214-.757-5.089.5-2.946,2.271-2.143.757-5.357,2.019-4.285,1.514-11.785,11.1-13.66,15.647-4.285,9.59,6.964,14.89,14.463,8.58C428.084,420.653,435.048,412.073,437.19,407.278Zm-61.335,30.789c-1.875-2.776-.8-21.451-.536-25.741,1.071-13.375,4.821-30.789,15-39.622a45.352,45.352,0,0,1,18.749-8.833c32.14-7.066,38.3,11.861,45,6.562,1.875-1.767,5.625-5.552,4.285-8.581s-4.018-4.795-7.232-6.561c-6.964-3.786-14.2-4.29-23.57-4.29-29.462,0-51.157,29.779-59.192,51.483-5.089,14.133-6.16,31.8-4.285,48.2,1.339,12.114,0,17.666,4.018,13.375a22.441,22.441,0,0,0,3.214-3.786c1.607-2.019,5.357-5.8,5.625-8.328.268-4.29-1.071-7.823,1.607-11.1,6.428-1.01,10.713,3.786,13.66,6.814,15.535,17.161,30,42.145,53.835,46.94,3.75.757,14.463-.5,18.213-1.514,5.892-1.514,9.91-7.066,10.178-9.338-1.607,0-1.875.757-4.821.757-7.232-.252-7.232-1.262-12.856-3.028-28.659-9.337-36.158-32.555-54.907-49.464C388.712,420.149,381.748,432.01,375.856,438.067Z" transform="translate(-0.109 -250.053)" fill="#fdc500" fill-rule="evenodd"/>
        <path id="Path_26" data-name="Path 26" d="M662.656,874.322c-1.767,0-2.524-.757-2.776-2.524-.252-1.262-.252-2.776-.5-4.29a23.109,23.109,0,0,1-.252-4.038v-5.552q0-1.514-.757-1.514a4.4,4.4,0,0,0-3.281,2.271,16.355,16.355,0,0,0-2.776,5.552v2.019a4.3,4.3,0,0,0-.252,1.767v1.766a5.683,5.683,0,0,0-.252,1.767,2.778,2.778,0,1,1-5.552,0,14.232,14.232,0,0,1-.252-1.767v-1.766a51.346,51.346,0,0,1,.252-5.552c0-2.271.252-4.29.252-5.552v-1.767a7.106,7.106,0,0,1-.252-2.019,1.9,1.9,0,0,1,1.009-1.766,2.865,2.865,0,0,1,2.019-.757c1.766,0,2.776,1.009,2.776,3.028v.252c2.019-2.019,4.038-3.028,6.309-3.028a5.258,5.258,0,0,1,5.3,3.281c.757,1.514,1.009,3.533,1.009,6.561v2.776a29.155,29.155,0,0,0,.5,4.038,27.516,27.516,0,0,1,.252,4.29,2.291,2.291,0,0,1-.757,1.767A2.865,2.865,0,0,1,662.656,874.322Zm10.6-25.994a4.535,4.535,0,0,1-2.271-1.01,2.46,2.46,0,0,1-1.01-2.271,2.3,2.3,0,0,1,1.01-2.019,4.535,4.535,0,0,1,2.271-1.01,3.2,3.2,0,0,1,2.271,1.01,2.3,2.3,0,0,1,1.009,2.019,2.46,2.46,0,0,1-1.009,2.271A3.2,3.2,0,0,1,673.256,848.328Zm1.767,14.89V867c0,1.767.252,3.029.252,3.786a3.115,3.115,0,0,1-1.01,2.019,2.483,2.483,0,0,1-2.019.757,2.606,2.606,0,0,1-2.776-2.776V858.675a30.643,30.643,0,0,0,.252-4.543,2.606,2.606,0,0,1,2.776-2.776,2.483,2.483,0,0,1,2.019.757,3.115,3.115,0,0,1,1.009,2.019c0,1.262-.252,2.776-.252,4.543A30.626,30.626,0,0,0,675.022,863.218Zm29.527.5v8.833a1.854,1.854,0,0,1-.5,1.514,2.048,2.048,0,0,1-2.019,1.009,2.563,2.563,0,0,1-2.524-1.262,4.071,4.071,0,0,1-.757-2.271c0-3.028,0-7.571.252-13.628s.252-10.6.252-13.628a2.866,2.866,0,0,1,.757-2.019,3.524,3.524,0,0,1,2.271-.757,3.357,3.357,0,0,1,2.019.757,2.866,2.866,0,0,1,.757,2.019,41.279,41.279,0,0,1-.252,5.047c0,2.271-.252,4.038-.252,4.8q1.514-1.136,10.6-11.357a3.082,3.082,0,0,1,2.271-1.009,2.6,2.6,0,0,1,2.776,2.776c0,1.009-1.514,3.028-4.795,6.562-2.271,2.776-5.047,5.3-7.571,7.823,1.514,1.514,3.028,2.776,4.543,4.29,1.767,1.514,3.281,2.776,4.543,4.038a8.967,8.967,0,0,0,2.271,1.009,2.894,2.894,0,0,1,2.271,2.776,6.422,6.422,0,0,1-.5,1.766,2.3,2.3,0,0,1-2.019,1.01c-2.019,0-4.542-1.262-7.823-3.785C710.353,869.275,708.082,867.256,704.549,863.723Zm25.741-9.59a9.6,9.6,0,0,1,3.281-2.271,9.22,9.22,0,0,1,3.786-.757,6.262,6.262,0,0,1,5.047,2.019,7.494,7.494,0,0,1,1.262,4.543c0,1.766.253,3.281.253,5.047.252,2.271.5,3.533.5,4.038a19.6,19.6,0,0,0,.5,4.038.928.928,0,0,1,.252.757,1.906,1.906,0,0,1-1.009,1.767,2.867,2.867,0,0,1-2.019.757,2.258,2.258,0,0,1-2.524-2.019,15.251,15.251,0,0,1-1.01-4.543,35.721,35.721,0,0,1-.252-4.8v-5.047c-.252-.5-.5-1.01-1.009-1.01a6.22,6.22,0,0,0-4.29,2.019,30.009,30.009,0,0,0-2.524,4.038c0,5.047-.252,7.823-.757,8.833a2.429,2.429,0,0,1-2.524,1.767,2.866,2.866,0,0,1-2.019-.757,2.554,2.554,0,0,1-1.009-1.767,10.928,10.928,0,0,0,.252-1.262c.252-.252.252-2.019.252-5.552V850.347l.252-.757v-3.281a5.685,5.685,0,0,0-.252-1.766v-1.767A2.606,2.606,0,0,1,727.514,840a2.894,2.894,0,0,1,2.776,2.271,14.533,14.533,0,0,1,.252,3.786v4.038A21.711,21.711,0,0,0,730.291,854.133Zm36.088,19.937c-.757,0-1.766-.757-3.028-1.767-1.262.5-2.524,1.01-3.281,1.262a14.533,14.533,0,0,1-2.524.5,10.3,10.3,0,0,1-7.571-2.776c-1.514-1.767-2.271-4.29-2.271-7.823a11.435,11.435,0,0,1,3.533-8.58,12.611,12.611,0,0,1,8.833-3.533,12.43,12.43,0,0,1,4.543,1.262q3.028,1.136,3.028,3.028a1.928,1.928,0,0,1-.5,1.262c0,.5-.252,1.262-.252,2.019s-.252,1.766-.252,2.776a15.987,15.987,0,0,0,.757,5.8s.252.757.757,2.019a11.167,11.167,0,0,1,.757,2.019,2.293,2.293,0,0,1-.757,1.767A2.728,2.728,0,0,1,766.379,874.07Zm-5.3-13.88c0-.5.252-1.01.252-1.514a6.276,6.276,0,0,1,.252-2.019c-.252,0-.5-.252-.757-.252h-.5a6.724,6.724,0,0,0-5.047,2.271,7.044,7.044,0,0,0-2.019,5.047,6.4,6.4,0,0,0,1.01,4.038,3.4,3.4,0,0,0,3.028,1.262,6.984,6.984,0,0,0,2.271-.252,10.223,10.223,0,0,0,2.271-1.262A54.508,54.508,0,0,1,761.079,860.189Zm16.151-5.552c2.019-2.271,4.038-3.533,5.8-3.533a5.254,5.254,0,0,1,4.8,2.271,9.794,9.794,0,0,1,2.776-1.514,6.927,6.927,0,0,1,3.281-.5,5.124,5.124,0,0,1,5.3,4.038,36.981,36.981,0,0,1,1.01,5.552c.252,2.019.757,5.8,1.514,11.1a1.9,1.9,0,0,1-1.01,1.766,2.866,2.866,0,0,1-2.019.757,2.546,2.546,0,0,1-2.776-2.271q-.378-2.271-.757-6.057c-.252-2.776-.5-4.795-.5-6.057-.5-2.271-1.01-3.533-1.514-3.533a6.371,6.371,0,0,0-2.271,1.01,8.81,8.81,0,0,0-2.271,1.514,38.677,38.677,0,0,0,.5,6.814c.252,3.028.5,5.3.5,6.814a2.292,2.292,0,0,1-.757,1.767,3.071,3.071,0,0,1-4.038,0,2.292,2.292,0,0,1-.757-1.767c0-1.766-.252-4.038-.5-7.066a38.668,38.668,0,0,1-.5-6.814c0-.757-.252-1.514-.252-2.019a13.254,13.254,0,0,0-4.795,4.543.881.881,0,0,0-.252.5,61.817,61.817,0,0,0-.253,6.309v3.028a1.9,1.9,0,0,1-1.01,1.766,2.718,2.718,0,0,1-2.019.5,2.426,2.426,0,0,1-2.271-1.514,8.239,8.239,0,0,1-.5-3.029v-13.88a7.455,7.455,0,0,1,.5-3.281,2.342,2.342,0,0,1,2.271-1.766,2.3,2.3,0,0,1,2.019,1.009,1.905,1.905,0,0,1,1.01,1.766C777.483,852.618,777.483,853.123,777.231,854.637Zm45.426,19.685a2.577,2.577,0,0,1-2.776-2.524,28.09,28.09,0,0,0-.5-4.29,23.087,23.087,0,0,1-.252-4.038v-3.785a1.106,1.106,0,0,0,.252-.757v-1.01q0-1.514-.757-1.514a4.392,4.392,0,0,0-3.533,2.271,16.135,16.135,0,0,0-2.524,5.552c0,.5-.252,1.262-.252,2.019,0,.5-.252,1.262-.252,1.767v1.766a14.232,14.232,0,0,1-.252,1.767,2.778,2.778,0,1,1-5.552,0,5.688,5.688,0,0,0-.252-1.767v-1.766a51.37,51.37,0,0,1,.252-5.552,49,49,0,0,0,.252-5.552v-3.786a2.291,2.291,0,0,1,.757-1.766,2.866,2.866,0,0,1,2.019-.757c1.766,0,2.776,1.009,2.776,3.028v.252a9.238,9.238,0,0,1,6.309-3.028c2.776,0,4.543,1.01,5.552,3.281a21.1,21.1,0,0,1,.757,6.561v2.776a29.152,29.152,0,0,0,.5,4.038,32.241,32.241,0,0,1,.5,4.29,2.292,2.292,0,0,1-.757,1.767A3.523,3.523,0,0,1,822.657,874.322Zm10.6-25.994a4.536,4.536,0,0,1-2.271-1.01,3.085,3.085,0,0,1-.757-2.271,2.866,2.866,0,0,1,.757-2.019,4.536,4.536,0,0,1,2.271-1.01,3.2,3.2,0,0,1,2.271,1.01,2.3,2.3,0,0,1,1.01,2.019,2.459,2.459,0,0,1-1.01,2.271A3.2,3.2,0,0,1,833.256,848.328Zm1.767,14.89a24.946,24.946,0,0,0,.252,3.785v3.786a2.606,2.606,0,0,1-2.776,2.776,2.483,2.483,0,0,1-2.019-.757,2.3,2.3,0,0,1-1.01-2.019v-7.571a30.626,30.626,0,0,1,.252-4.542v-4.543a2.3,2.3,0,0,1,1.01-2.019,2.484,2.484,0,0,1,2.019-.757,2.605,2.605,0,0,1,2.776,2.776,30.658,30.658,0,0,1-.252,4.543C835.275,860.442,835.023,861.956,835.023,863.218Z" transform="translate(-465.952 -615.646)" fill="#afcb3e" fill-rule="evenodd"/>
        <path id="Path_27" data-name="Path 27" d="M690.092,100A62.966,62.966,0,1,1,627,162.839,63.008,63.008,0,0,1,690.092,100Zm-24.227,27.76A14.956,14.956,0,0,0,664.1,131.8a26.435,26.435,0,0,0-2.019-2.776c-1.262-1.009-2.524-1.009-2.776.757-.5,2.524.5,6.562.757,8.833a17.773,17.773,0,0,1-1.766-2.271,6.8,6.8,0,0,0-1.767-2.019c-1.01-.757-2.271-.5-2.524.757a6.989,6.989,0,0,0,.252,3.281c-1.009-.252-4.29-2.524-5.3-1.262-1.262,1.262.757,4.29,1.009,5.3-1.262-.252-5.047-1.262-4.795,1.262.252,1.262,2.776,2.524,3.028,3.533.757,0,.252,0,1.262.5a3.484,3.484,0,0,0,1.01.757,10.967,10.967,0,0,0,1.766,1.514c2.271,1.514,6.057,3.533,7.823,5.047,3.786,3.028,3.028,3.281,3.028,3.281h0c-1.514.5-6.309-3.533-7.319-4.29-.757-.757-6.057-5.047-7.319-3.785-.5,1.262.5,1.767.757,2.776-1.009,0-3.533-.5-3.533,1.009,0,.757,1.514,2.019,2.019,2.524l-1.262.252c-.505.5-1.262.5-1.262,1.262-.252.757.5,1.009,1.01,1.262l4.542,1.262c-.757.252-3.028.757-3.533,1.009-1.262,1.514,1.262,2.019,2.019,2.271l-.757.5c-.252.757-1.262.757-1.262,2.271a6.927,6.927,0,0,0,3.281.5c-.253.5-1.514,1.767-.757,2.776,1.514,1.262,7.318-3.786,8.328-4.038a3.924,3.924,0,0,1,2.019-1.514c-.252.757-1.009,1.514-.757,2.524.757.5,1.01,0,1.767-.252a6.988,6.988,0,0,0,.252,2.271c1.01,0,1.514-.757,2.019-1.262.5.5,0,.252,1.009,1.767.757-.252.757-.252,1.01-1.262.252-.5.252-1.009.5-1.514.252,6.309-7.571,34.827-10.095,36.593-.5,1.514-2.776,2.776-1.01,4.038,1.514.757,2.524-3.028,3.533-3.785a51.819,51.819,0,0,1,2.019-4.795l.252-.252c.253-.757,5.3-3.785,6.562-4.543a50.188,50.188,0,0,1,8.581-3.281c-.252.252-.5.252-1.01.5s-.5.252-.5,1.009c1.009.252.757,0,1.262.252a2.7,2.7,0,0,0-.5,1.514,3.2,3.2,0,0,0,1.514-.252c0,.5-.252.757,0,1.262a2.555,2.555,0,0,0,1.766-1.009c-.252.5-.5,1.262-.757,1.767,0,.757-2.524,5.3-1.514,6.057.757.252,1.514-.757,1.767-1.009.252,1.009.252,1.514.757,2.019,1.262,0,1.01-.757,1.514-1.009v-.5c.5.252,1.262,2.019,1.767.757a6.267,6.267,0,0,0,.252-2.271l1.514,2.776c.252.252.5.757,1.009.5a1.008,1.008,0,0,0,.5-1.009v-1.009c.5.252,1.514,1.009,2.019,1.009,1.01-.252.253-1.767,0-2.524.757.252,1.262.5,2.019,0,.757-1.01-3.028-3.786-3.533-4.29s-4.038-3.028-4.038-4.038h.253s0-.5,2.524,1.514c1.262,1.009,3.281,3.028,4.543,4.29a4.431,4.431,0,0,0,1.262,1.009c.252.252.252.5.5.757.757.252.5.252.5.5.757,0,2.019,1.514,3.028,1.514,1.514-.252.252-2.524,0-3.281.757,0,3.028.757,3.786-.252.5-1.009-1.514-2.776-1.767-3.281a6.987,6.987,0,0,0,2.271-.252.971.971,0,0,0,0-1.767,5.278,5.278,0,0,0-1.514-1.009,12.311,12.311,0,0,1-1.767-.757c1.514-.252,4.29,0,5.8-.757,1.262-.5,1.01-1.262.252-2.019-.757-.5-1.514-.5-2.271-1.009a11.032,11.032,0,0,0,2.524-1.514c0-.252,1.262-1.514-.5-2.019a24.33,24.33,0,0,0-3.028-.5,10.967,10.967,0,0,0,1.514-1.767c.252-.757,0-1.767-1.009-1.514-2.019,0-3.786,1.262-5.3,1.767.253-.5,1.01-1.009,1.262-1.767.757-1.009,0-1.767-1.009-1.514l-1.767.5c0-.757,1.009-3.028,0-3.786-.757-.5-3.028,1.262-3.281,1.767-.252-1.262,0-3.786-2.019-3.028l-.757,1.262-.252.252c0,.5-.253.757-.5,1.262a3.584,3.584,0,0,0-.5,1.514c-1.009,2.524-1.767,6.057-3.281,8.076,0,.252-.252.5-.757.5-.252-1.009,1.514-4.29,2.019-5.3.5-1.262,2.019-4.038,1.514-5.3h-.252c-1.01-.252-1.01.5-1.766.757,0-.5-.253-2.271-1.01-2.019-.757,0-1.262,1.262-1.514,1.514-.252-.252-.5-1.262-1.009-1.262-.757-.5-.757.5-1.01.757v3.281c-.5-.5-1.009-2.019-1.514-2.271-1.01-.5-.757,1.262-1.01,1.767-.252-.252-.252,0-.252-.5a1.311,1.311,0,0,1-1.01-.5h-.5c-.5.252-.252.252-.5.5l.252,1.767c-.5,0-1.01-.5-1.766,0-.252.757.252,1.009.757,1.767h0a15.227,15.227,0,0,1,2.019,2.019,6.8,6.8,0,0,1,2.019,1.767c-1.01,0-2.524-.757-3.281-.252-.252.757.5,1.009.757,1.514a5.346,5.346,0,0,0-1.766.757c.252,1.009,1.01,1.009,1.766,1.262l-.757.5c-.252.252-.5.5-.252,1.009.5.5.757,0,1.514.252A29.372,29.372,0,0,1,669.9,191.1a38.082,38.082,0,0,0-7.066,3.785c-.252,0-1.01.757-1.767,1.262,2.271-7.823,5.8-24.984,6.814-27,.5,1.009,0,1.767,1.01,2.271a1.574,1.574,0,0,0,1.262-.757l.252-1.262c.757.757,1.262,2.019,2.524,2.019a4.992,4.992,0,0,0,.5-2.776c1.01.5,1.262,1.262,2.524.757.505-1.262-1.009-3.533-1.514-4.543a13.9,13.9,0,0,1,3.533,2.271c.757.5,2.776,1.514,3.281,2.271.5-.252.252-.252.252,0,1.01.252,1.767,1.009,2.776.5.252-1.262-.5-2.019-.757-2.776l2.776-.252c.252-.252.252.252.5-.5,0-.5-.252-.757-.252-1.009-.5-.5-.757-.5-1.01-1.009-.757-.252-.5-.252-.757-.5.757-.252,3.281-.757,2.019-2.019-.5-.5-2.776-1.009-3.533-1.262l4.542-1.262c.252-.252,1.767-.757,1.01-1.767a4.264,4.264,0,0,0-2.524-.757c.252-.757,2.271-2.019,2.019-3.028s-2.524-1.009-3.533-.5c.252-1.262,1.262-1.514.757-3.028l-.252-.252c-2.019-.252-5.552,3.028-7.319,4.038-1.009.757-5.3,4.543-6.562,4.543-.252-.757-.252-1.009.252-1.262,2.524-2.776,7.319-5.047,10.6-7.319a7.675,7.675,0,0,0,1.767-1.262,8.854,8.854,0,0,1,2.019-1.262c0-.252-.252,0,0-.252l1.514-1.514c.757-3.281-2.776-2.019-4.8-1.767.5-.757,2.271-4.543,1.262-5.552-1.262-1.262-4.29,1.009-5.3,1.514l.252-3.028c-.252-1.514-1.262-2.271-2.776-1.009-.757.757-1.262,2.019-2.019,2.776.252-2.776,1.262-5.3,1.009-8.328-.252-1.767-1.767-1.767-2.776-1.009a17.677,17.677,0,0,0-2.019,2.524c-.5-.757-.5-2.019-1.514-4.038C667.631,125.237,665.865,127.508,665.865,127.76Z" transform="translate(-455.465 -62.397)" fill="#b0cb1f" fill-rule="evenodd"/>
        <text id="S" transform="translate(168.245 65.622)" fill="#fff" font-size="24" font-family="ComicSansMS-Bold, Comic Sans MS" font-weight="700"><tspan x="0" y="0">S</tspan></text>
        <text id="i" transform="translate(180.037 44.47)" fill="#fff" font-size="19" font-family="ComicSansMS-Bold, Comic Sans MS" font-weight="700"><tspan x="0" y="0">i</tspan></text>
        <text id="n" transform="translate(185.858 45.413)" fill="#fff" font-size="25" font-family="ComicSansMS-Bold, Comic Sans MS" font-weight="700"><tspan x="0" y="0">n</tspan></text>
        <text id="c" transform="translate(198.949 32.833)" fill="#fff" font-size="22" font-family="ComicSansMS-Bold, Comic Sans MS" font-weight="700"><tspan x="0" y="0">c</tspan></text>
        <text id="e" transform="translate(213.487 28.776)" fill="#fff" font-size="24" font-family="ComicSansMS-Bold, Comic Sans MS" font-weight="700"><tspan x="0" y="0">e</tspan></text>
        <text id="_1" data-name="1" transform="translate(243.594 26)" fill="#fff" font-size="24" font-family="ComicSansMS-Bold, Comic Sans MS" font-weight="700"><tspan x="0" y="0">1</tspan></text>
        <text id="_9" data-name="9" transform="translate(261.839 30.29)" fill="#fff" font-size="24" font-family="ComicSansMS-Bold, Comic Sans MS" font-weight="700"><tspan x="0" y="0">9</tspan></text>
        <text id="_4" data-name="4" transform="translate(278.474 38.618)" fill="#fff" font-size="24" font-family="ComicSansMS-Bold, Comic Sans MS" font-weight="700"><tspan x="0" y="0">4</tspan></text>
        <text id="_2" data-name="2" transform="translate(291.89 50.732)" fill="#fff" font-size="24" font-family="ComicSansMS-Bold, Comic Sans MS" font-weight="700"><tspan x="0" y="0">2</tspan></text>
        <circle id="Ellipse_21" data-name="Ellipse 21" cx="68.896" cy="68.896" r="68.896" transform="translate(165.717 31.546)" fill="none"/>
      </g>
    </g>
  </g>
</svg>
