<svg id="uppercontainer" xmlns="http://www.w3.org/2000/svg" width="414" height="470" viewBox="0 0 414 470">
  <rect id="Rectangle_47" data-name="Rectangle 47" width="414" height="379" fill="#1a2855"/>
  <path id="wave_5_" data-name="wave (5)" d="M0,26.121l7.676,8.693c7.648,8.857,23.086,26,38.324,23.958,15.324-2.041,30.763-24.08,46-17.427,15.324,6.408,30.762,41.507,46,41.385,15.324.122,30.762-34.977,46-34.855,15.324-.122,30.762,34.977,46,43.548,15.324,8.571,30.762-8.571,46-19.591,15.324-11.02,30.763-15.1,46-13.06,15.324,2.041,30.762,11.02,46,2.163,15.324-8.693,30.763-34.814,38.238-47.874L414,0V130.6H0Z" transform="translate(0 248.644)" fill="#fdc500"/>
  <path id="wave_5_2" data-name="wave (5)" d="M414,72.96l-7.676-6.071C398.676,60.705,383.237,48.735,368,50.16c-15.324,1.425-30.762,16.815-46,12.17-15.324-4.475-30.762-28.985-46-28.9-15.324-.086-30.763,24.425-46,24.339-15.324.085-30.762-24.425-46-30.41-15.324-5.985-30.762,5.985-46,13.68-15.324,7.7-30.763,10.545-46,9.12-15.324-1.425-30.763-7.7-46-1.511C30.676,54.72,15.237,72.96,7.763,82.08L0,91.2V0H414Z" transform="translate(0 378.8)" fill="#fdc500"/>
</svg>
